<mxfile host="app.diagrams.net" agent="Mozilla/5.0 (Windows NT 10.0; Win64; x64) AppleWebKit/537.36 (KHTML, like Gecko) Chrome/130.0.0.0 Safari/537.36 Edg/130.0.0.0" version="24.8.2">
  <diagram name="Page-1" id="edeDqnzR2S_LQgBokera">
    <mxGraphModel grid="1" page="1" gridSize="10" guides="1" tooltips="1" connect="1" arrows="1" fold="1" pageScale="1" pageWidth="850" pageHeight="1100" math="0" shadow="0">
      <root>
        <mxCell id="0" />
        <mxCell id="1" parent="0" />
        <mxCell id="gENglyULy59NCxUoJeaR-1" value="&lt;font size=&quot;3&quot;&gt;START&lt;/font&gt;" style="ellipse;whiteSpace=wrap;html=1;" vertex="1" parent="1">
          <mxGeometry x="390" y="20" width="100" height="60" as="geometry" />
        </mxCell>
        <mxCell id="gENglyULy59NCxUoJeaR-2" value="" style="endArrow=classic;html=1;rounded=0;exitX=0.5;exitY=1;exitDx=0;exitDy=0;" edge="1" parent="1" source="gENglyULy59NCxUoJeaR-1">
          <mxGeometry width="50" height="50" relative="1" as="geometry">
            <mxPoint x="400" y="290" as="sourcePoint" />
            <mxPoint x="440" y="150" as="targetPoint" />
          </mxGeometry>
        </mxCell>
        <mxCell id="gENglyULy59NCxUoJeaR-3" value="enter angle A&lt;div&gt;enter angle B&lt;/div&gt;&lt;div&gt;enter angle C&lt;/div&gt;" style="shape=parallelogram;perimeter=parallelogramPerimeter;whiteSpace=wrap;html=1;fixedSize=1;" vertex="1" parent="1">
          <mxGeometry x="330" y="150" width="230" height="90" as="geometry" />
        </mxCell>
        <mxCell id="gENglyULy59NCxUoJeaR-4" value="" style="endArrow=classic;html=1;rounded=0;exitX=0.5;exitY=1;exitDx=0;exitDy=0;" edge="1" parent="1" source="gENglyULy59NCxUoJeaR-3">
          <mxGeometry width="50" height="50" relative="1" as="geometry">
            <mxPoint x="440" y="330" as="sourcePoint" />
            <mxPoint x="445" y="320" as="targetPoint" />
          </mxGeometry>
        </mxCell>
        <mxCell id="gENglyULy59NCxUoJeaR-5" value="&lt;div&gt;if angle A + angle B + angle C == 180:&lt;/div&gt;" style="rhombus;whiteSpace=wrap;html=1;" vertex="1" parent="1">
          <mxGeometry x="290" y="320" width="310" height="140" as="geometry" />
        </mxCell>
        <mxCell id="gENglyULy59NCxUoJeaR-6" value="" style="endArrow=classic;html=1;rounded=0;exitX=0;exitY=0.5;exitDx=0;exitDy=0;" edge="1" parent="1" source="gENglyULy59NCxUoJeaR-5">
          <mxGeometry width="50" height="50" relative="1" as="geometry">
            <mxPoint x="280" y="390" as="sourcePoint" />
            <mxPoint x="200" y="540" as="targetPoint" />
            <Array as="points">
              <mxPoint x="200" y="390" />
            </Array>
          </mxGeometry>
        </mxCell>
        <mxCell id="gENglyULy59NCxUoJeaR-15" value="&lt;font size=&quot;3&quot;&gt;Y&lt;/font&gt;" style="edgeLabel;html=1;align=center;verticalAlign=middle;resizable=0;points=[];" connectable="0" vertex="1" parent="gENglyULy59NCxUoJeaR-6">
          <mxGeometry x="-0.6833" relative="1" as="geometry">
            <mxPoint as="offset" />
          </mxGeometry>
        </mxCell>
        <mxCell id="gENglyULy59NCxUoJeaR-7" value="" style="endArrow=classic;html=1;rounded=0;" edge="1" parent="1">
          <mxGeometry width="50" height="50" relative="1" as="geometry">
            <mxPoint x="600" y="390" as="sourcePoint" />
            <mxPoint x="720" y="540" as="targetPoint" />
            <Array as="points">
              <mxPoint x="720" y="390" />
            </Array>
          </mxGeometry>
        </mxCell>
        <mxCell id="gENglyULy59NCxUoJeaR-16" value="&lt;font size=&quot;3&quot;&gt;N&lt;/font&gt;" style="edgeLabel;html=1;align=center;verticalAlign=middle;resizable=0;points=[];" connectable="0" vertex="1" parent="gENglyULy59NCxUoJeaR-7">
          <mxGeometry x="-0.5407" y="1" relative="1" as="geometry">
            <mxPoint as="offset" />
          </mxGeometry>
        </mxCell>
        <mxCell id="gENglyULy59NCxUoJeaR-11" style="edgeStyle=orthogonalEdgeStyle;rounded=0;orthogonalLoop=1;jettySize=auto;html=1;exitX=1;exitY=0.5;exitDx=0;exitDy=0;" edge="1" parent="1">
          <mxGeometry relative="1" as="geometry">
            <mxPoint x="420" y="570" as="targetPoint" />
            <mxPoint x="300" y="570" as="sourcePoint" />
          </mxGeometry>
        </mxCell>
        <mxCell id="gENglyULy59NCxUoJeaR-12" style="edgeStyle=orthogonalEdgeStyle;rounded=0;orthogonalLoop=1;jettySize=auto;html=1;exitX=0;exitY=0.5;exitDx=0;exitDy=0;" edge="1" parent="1">
          <mxGeometry relative="1" as="geometry">
            <mxPoint x="500" y="570" as="targetPoint" />
            <mxPoint x="620" y="570" as="sourcePoint" />
          </mxGeometry>
        </mxCell>
        <mxCell id="gENglyULy59NCxUoJeaR-14" style="edgeStyle=orthogonalEdgeStyle;rounded=0;orthogonalLoop=1;jettySize=auto;html=1;exitX=0.5;exitY=1;exitDx=0;exitDy=0;entryX=0.5;entryY=0;entryDx=0;entryDy=0;" edge="1" parent="1" source="gENglyULy59NCxUoJeaR-10" target="gENglyULy59NCxUoJeaR-13">
          <mxGeometry relative="1" as="geometry" />
        </mxCell>
        <mxCell id="gENglyULy59NCxUoJeaR-10" value="" style="ellipse;whiteSpace=wrap;html=1;aspect=fixed;" vertex="1" parent="1">
          <mxGeometry x="430" y="540" width="60" height="60" as="geometry" />
        </mxCell>
        <mxCell id="gENglyULy59NCxUoJeaR-13" value="&lt;font size=&quot;3&quot;&gt;STOP&lt;/font&gt;" style="ellipse;whiteSpace=wrap;html=1;" vertex="1" parent="1">
          <mxGeometry x="405" y="730" width="110" height="70" as="geometry" />
        </mxCell>
        <mxCell id="FOVcsAffo7i6r5XKVQoO-1" value="print(triangle is valid)" style="shape=parallelogram;perimeter=parallelogramPerimeter;whiteSpace=wrap;html=1;fixedSize=1;" vertex="1" parent="1">
          <mxGeometry x="120" y="540" width="190" height="60" as="geometry" />
        </mxCell>
        <mxCell id="FOVcsAffo7i6r5XKVQoO-2" value="print(triangle is not valid)" style="shape=parallelogram;perimeter=parallelogramPerimeter;whiteSpace=wrap;html=1;fixedSize=1;" vertex="1" parent="1">
          <mxGeometry x="610" y="540" width="190" height="60" as="geometry" />
        </mxCell>
      </root>
    </mxGraphModel>
  </diagram>
</mxfile>
